<?xml version="1.0"?>
<svg xmlns="http://www.w3.org/2000/svg" xmlns:xlink="http://www.w3.org/1999/xlink" version="1.1" id="Capa_1" x="0px" y="0px" width="512px" height="512px" viewBox="0 0 467.514 467.514" style="enable-background:new 0 0 467.514 467.514;" xml:space="preserve"><g><g>
	<g>
		<path d="M1.804,253.696c0,0,2.629,29.454,21.566,36.812c6.488,2.533,11.152,5.606,14.607,8.572l19.244-15.316l3.679-2.93    l2.224,4.14c0.068,0.137,2.763,5.062,7.834,12.527c0.495-0.252,0.94-0.477,1.343-0.673c6.323-3.162,5.769-21.576-15.797-28.934    c-21.566-7.362-28.401-38.924-28.401-38.924c-7.893,14.727,3.156,40.503,3.156,40.503c-0.23,0.008-0.449,0.016-0.676,0.016    C16.577,269.489,1.804,253.696,1.804,253.696z" data-original="#000000" class="active-path" data-old_color="#000000" fill="#CEB50F"/>
		<path d="M233.758,467.252c0,0,22.616,4.199,47.866-21.048l-2.78-5.313c-4.637,3.467-7.246,5.631-7.338,5.69l-3.731,3.126    l-2.264-4.308l-12.74-24.317c-4.608,2.813-10.832,5.138-19.021,5.138c-8.188,0-14.413-2.324-19.02-5.138l-12.742,24.317    l-2.262,4.308l-3.737-3.126c-0.078-0.068-2.691-2.24-7.333-5.69l-2.779,5.313C211.142,471.451,233.758,467.252,233.758,467.252z" data-original="#000000" class="active-path" data-old_color="#000000" fill="#CEB50F"/>
		<path d="M136.452,404.655c24.249,11.598,43.761,25.043,54.06,32.709c5.117,3.811,8.007,6.212,8.007,6.212l12.96-24.746    l4.398-8.388c-15.257-17.885-61.542-30.513-98.886-58.389c-20.285-15.14-35.403-33.041-45.029-46.266    c-0.808-1.109-1.579-2.184-2.306-3.226c-0.793-1.138-1.557-2.224-2.254-3.262c-5.095-7.542-7.74-12.455-7.74-12.455L40.86,301.81    l-3.056,2.424l-3.094,2.453l-0.823,0.656C35.466,335.74,100.16,387.296,136.452,404.655z" data-original="#000000" class="active-path" data-old_color="#000000" fill="#CEB50F"/>
		<path d="M233.758,0H72.457v223.712c0,0-6.314,68.022,59.606,107.996c65.918,39.975,96.082,54,101.687,72.939    c5.612-18.939,35.764-32.965,101.687-72.939c65.922-39.974,59.606-107.996,59.606-107.996V0H233.758z" data-original="#000000" class="active-path" data-old_color="#000000" fill="#CEB50F"/>
		<path d="M465.71,253.696c0,0-14.771,15.793-28.777,15.793c-0.229,0-0.445-0.008-0.674-0.016c0,0,11.045-25.776,3.158-40.503    c0,0-6.841,31.562-28.404,38.924c-21.564,7.357-22.117,25.771-15.802,28.934c0.409,0.188,0.85,0.421,1.351,0.673    c5.073-7.466,7.759-12.391,7.834-12.527l2.225-4.14l3.679,2.93l19.244,15.316c3.45-2.958,8.11-6.039,14.603-8.572    C463.081,283.15,465.71,253.696,465.71,253.696z" data-original="#000000" class="active-path" data-old_color="#000000" fill="#CEB50F"/>
		<path d="M433.626,307.343l-0.833-0.656l-3.082-2.453l-3.054-2.44l-18.803-14.956c0,0-2.645,4.913-7.738,12.459    c-0.705,1.034-1.463,2.129-2.252,3.259c-0.737,1.042-1.503,2.107-2.316,3.226c-9.614,13.225-24.73,31.126-45.023,46.273    c-37.342,27.876-83.631,40.495-98.888,58.381l4.4,8.379l12.956,24.754c0,0,2.897-2.4,8.011-6.207    c10.312-7.674,29.815-21.107,54.057-32.713C367.352,387.296,432.047,335.74,433.626,307.343z" data-original="#000000" class="active-path" data-old_color="#000000" fill="#CEB50F"/>
	</g>
</g></g> </svg>
